<svg width="24" height="24" viewBox="0 0 24 24" fill="none" xmlns="http://www.w3.org/2000/svg">
<path d="M22.3535 11.6464C22.4 11.6928 22.4368 11.7479 22.4619 11.8086C22.487 11.8693 22.5 11.9343 22.5 11.9999C22.5 12.0656 22.487 12.1306 22.4619 12.1912C22.4368 12.2519 22.4 12.307 22.3535 12.3534L18.3535 16.3534C18.2592 16.4445 18.1329 16.4949 18.0018 16.4938C17.8707 16.4926 17.7453 16.44 17.6526 16.3473C17.5599 16.2546 17.5073 16.1292 17.5062 15.9981C17.505 15.867 17.5554 15.7407 17.6465 15.6464L20.793 12.4999H2C1.86739 12.4999 1.74021 12.4473 1.64645 12.3535C1.55268 12.2597 1.5 12.1325 1.5 11.9999C1.5 11.8673 1.55268 11.7402 1.64645 11.6464C1.74021 11.5526 1.86739 11.4999 2 11.4999H20.793L17.6465 8.35346C17.5554 8.25916 17.505 8.13286 17.5061 8.00176C17.5073 7.87066 17.5599 7.74525 17.6526 7.65255C17.7453 7.55985 17.8707 7.50726 18.0018 7.50612C18.1329 7.50498 18.2592 7.55538 18.3535 7.64646L22.3535 11.6464Z" fill="#0076D2"/>
</svg>
