<svg width="48" height="48" viewBox="0 0 48 48" fill="none" xmlns="http://www.w3.org/2000/svg">
<path d="M23.9992 39.9153C23.6684 39.9153 23.3511 39.8544 23.0473 39.7326C22.7435 39.6108 22.48 39.4115 22.257 39.1346L5.5569 19.0576C5.26717 18.7063 5.09539 18.3128 5.04155 17.8769C4.98769 17.441 5.06845 17.0205 5.28385 16.6154L9.66845 7.7461C9.85822 7.3615 10.1371 7.05767 10.505 6.8346C10.8729 6.61153 11.2697 6.5 11.6954 6.5H36.3031C36.7287 6.5 37.1255 6.61153 37.4934 6.8346C37.8613 7.05767 38.1466 7.3615 38.3492 7.7461L42.7338 16.6154C42.9364 17.0205 43.0107 17.441 42.9569 17.8769C42.903 18.3128 42.7312 18.7063 42.4415 19.0576L25.7607 39.1346C25.5248 39.4115 25.2549 39.6108 24.9511 39.7326C24.6473 39.8544 24.33 39.9153 23.9992 39.9153ZM17.4569 16.8654H30.5416L26.5031 8.76915H21.4954L17.4569 16.8654ZM22.8646 36.3385V19.1346H8.57225L22.8646 36.3385ZM25.1338 36.3385L39.4454 19.1346H25.1338V36.3385ZM33.0838 16.8654H40.23L36.1608 8.76915H29.0261L33.0838 16.8654ZM7.78765 16.8654H14.9339L18.9724 8.76915H11.8377L7.78765 16.8654Z" fill="#0076D2"/>
</svg>
