<svg width="48" height="48" viewBox="0 0 48 48" fill="none" xmlns="http://www.w3.org/2000/svg">
<path d="M24 42.9999C21.3538 42.9999 18.875 42.5005 16.5635 41.5018C14.2519 40.5031 12.2378 39.1486 10.5212 37.4384C8.80448 35.7281 7.45513 33.7121 6.4731 31.3903C5.49103 29.0685 5 26.5782 5 23.9192C5 21.273 5.49103 18.7993 6.4731 16.4981C7.45513 14.1968 8.80448 12.191 10.5212 10.4808C12.2378 8.77052 14.2519 7.4295 16.5635 6.4577C18.875 5.4859 21.3538 5 24 5C26.6461 5 29.1249 5.4859 31.4365 6.4577C33.748 7.4295 35.7621 8.77052 37.4788 10.4808C39.1954 12.191 40.5448 14.1968 41.5268 16.4981C42.5089 18.7993 42.9999 21.273 42.9999 23.9192C42.9999 26.5782 42.5089 29.0685 41.5268 31.3903C40.5448 33.7121 39.1954 35.7281 37.4788 37.4384C35.7621 39.1486 33.748 40.5031 31.4365 41.5018C29.1249 42.5005 26.6461 42.9999 24 42.9999ZM24 40.8307C25.2436 39.4897 26.2666 38.0345 27.0692 36.4653C27.8718 34.8961 28.5295 33.0576 29.0423 30.9499H18.9884C19.4935 33.0268 20.1474 34.8621 20.95 36.4557C21.7525 38.0493 22.7692 39.5076 24 40.8307ZM20.827 40.423C19.8911 39.2076 19.0622 37.7929 18.3404 36.1788C17.6186 34.5647 17.0513 32.8217 16.6385 30.9499H8.6769C9.95637 33.5345 11.5641 35.5756 13.5 37.0731C15.4359 38.5705 17.8782 39.6871 20.827 40.423ZM27.223 40.3923C29.8409 39.8051 32.2076 38.6936 34.323 37.0577C36.4384 35.4218 38.1051 33.3858 39.323 30.9499H31.3922C30.8948 32.8268 30.2935 34.566 29.5884 36.1673C28.8832 37.7686 28.0948 39.1769 27.223 40.3923ZM7.94615 28.6808H16.2231C16.0974 27.7679 16.0167 26.9275 15.9808 26.1596C15.9449 25.3916 15.9269 24.6448 15.9269 23.9192C15.9269 23.1115 15.95 22.3474 15.9962 21.6269C16.0423 20.9064 16.1282 20.1269 16.2539 19.2884H7.94615C7.69998 20.0628 7.52562 20.8115 7.42305 21.5346C7.32048 22.2577 7.2692 23.0525 7.2692 23.9192C7.2692 24.7987 7.32048 25.6153 7.42305 26.3692C7.52562 27.123 7.69998 27.8936 7.94615 28.6808ZM18.5538 28.6808H29.4769C29.623 27.6731 29.7192 26.8154 29.7654 26.1077C29.8115 25.4 29.8346 24.6705 29.8346 23.9192C29.8346 23.2012 29.8115 22.5019 29.7654 21.8211C29.7192 21.1403 29.623 20.2961 29.4769 19.2884H18.5538C18.4076 20.2961 18.3115 21.1403 18.2653 21.8211C18.2192 22.5019 18.1961 23.2012 18.1961 23.9192C18.1961 24.6705 18.2192 25.4 18.2653 26.1077C18.3115 26.8154 18.4076 27.6731 18.5538 28.6808ZM31.7461 28.6808H40.0538C40.2999 27.8936 40.4743 27.123 40.5769 26.3692C40.6794 25.6153 40.7307 24.7987 40.7307 23.9192C40.7307 23.0525 40.6794 22.2577 40.5769 21.5346C40.4743 20.8115 40.2999 20.0628 40.0538 19.2884H31.7961C31.9089 20.391 31.9884 21.2891 32.0345 21.9827C32.0807 22.6762 32.1038 23.3217 32.1038 23.9192C32.1038 24.6653 32.0756 25.3987 32.0192 26.1192C31.9627 26.8397 31.8717 27.6936 31.7461 28.6808ZM31.3615 17.0192H39.323C38.1461 14.4628 36.516 12.3763 34.4326 10.7596C32.3493 9.14289 29.9294 8.07558 27.173 7.55765C28.1089 8.81662 28.9262 10.2301 29.6249 11.7981C30.3236 13.366 30.9025 15.1064 31.3615 17.0192ZM18.9884 17.0192H29.0923C28.6487 15.1372 27.9904 13.3615 27.1173 11.6923C26.2442 10.0231 25.2051 8.53589 24 7.23075C22.8692 8.27179 21.9147 9.55769 21.1365 11.0885C20.3583 12.6192 19.6422 14.5961 18.9884 17.0192ZM8.6769 17.0192H16.6692C17.0872 15.1679 17.6372 13.4667 18.3193 11.9154C19.0013 10.3641 19.8206 8.92173 20.777 7.5884C18.0205 8.11917 15.6192 9.17944 13.5731 10.7692C11.5269 12.3589 9.89483 14.4423 8.6769 17.0192Z" fill="#0076D2"/>
</svg>
