<svg width="48" height="48" viewBox="0 0 48 48" fill="none" xmlns="http://www.w3.org/2000/svg">
<path d="M23.5775 40.6732C23.8083 40.6732 24.0544 40.6219 24.316 40.5193C24.5775 40.4168 24.7878 40.2796 24.9468 40.1078L41.2775 23.7463C41.7493 23.2745 42.1128 22.7608 42.3679 22.2053C42.623 21.6497 42.7506 21.0685 42.7506 20.4617C42.7506 19.8437 42.623 19.2354 42.3679 18.6367C42.1128 18.0379 41.7493 17.5027 41.2775 17.0309L32.9122 8.66552C32.4404 8.19372 31.9243 7.83987 31.3641 7.60397C30.8038 7.36807 30.2147 7.25012 29.5968 7.25012C28.9899 7.25012 28.4055 7.36807 27.8436 7.60397C27.2816 7.83987 26.7711 8.19372 26.3122 8.66552L24.9121 10.0656L28.866 14.0502C29.2608 14.4656 29.6025 14.956 29.891 15.5213C30.1794 16.0867 30.3236 16.6912 30.3236 17.3348C30.3236 18.4604 29.9025 19.436 29.0602 20.2617C28.2179 21.0873 27.2403 21.5001 26.1275 21.5001C25.4096 21.5001 24.798 21.3944 24.2929 21.1828C23.7878 20.9713 23.3264 20.6604 22.9087 20.2504L19.1853 16.5155L10.2699 25.4309C10.0776 25.6232 9.93524 25.8403 9.8429 26.0822C9.7506 26.3241 9.70445 26.5696 9.70445 26.8185C9.70445 27.3037 9.86215 27.7008 10.1776 28.0098C10.4929 28.3187 10.8874 28.4732 11.3609 28.4732C11.6233 28.4732 11.875 28.4136 12.116 28.2944C12.357 28.1751 12.5571 28.036 12.7161 27.8771L19.366 21.2271L20.966 22.827L14.3468 29.427C14.1545 29.6322 14.0122 29.8572 13.9199 30.102C13.8275 30.3469 13.7814 30.595 13.7814 30.8463C13.7814 31.2975 13.9474 31.6892 14.2795 32.0213C14.6115 32.3533 15.0032 32.5194 15.4545 32.5194C15.7058 32.5194 15.9519 32.4681 16.193 32.3655C16.434 32.263 16.634 32.1258 16.793 31.954L23.6737 25.0732L25.2737 26.6732L18.4237 33.5039C18.2647 33.6757 18.1307 33.8896 18.0218 34.1456C17.9128 34.4016 17.8583 34.6608 17.8583 34.9232C17.8583 35.3745 18.0243 35.7661 18.3564 36.0982C18.6884 36.4302 19.0801 36.5963 19.5314 36.5963C19.7827 36.5963 20.0205 36.5501 20.2449 36.4578C20.4692 36.3655 20.6776 36.2232 20.8699 36.0309L27.7506 29.1501L29.3506 30.7501L22.4698 37.6308C22.2775 37.8232 22.1352 38.0482 22.0429 38.3058C21.9506 38.5635 21.9044 38.8014 21.9044 39.0193C21.9044 39.5245 22.0602 39.9264 22.3718 40.2251C22.6833 40.5238 23.0852 40.6732 23.5775 40.6732ZM23.5807 42.9424C22.5427 42.9424 21.6352 42.5533 20.8583 41.7751C20.0814 40.9968 19.6737 40.025 19.6353 38.8595C18.5019 38.7994 17.5551 38.4052 16.7949 37.677C16.0346 36.9488 15.6225 35.986 15.5584 34.7885C14.3737 34.7116 13.416 34.3007 12.6853 33.5559C11.9545 32.811 11.5635 31.8629 11.5122 30.7116C10.3558 30.6475 9.38722 30.2565 8.60645 29.5386C7.82569 28.8206 7.4353 27.8976 7.4353 26.7694C7.4353 26.2412 7.54095 25.7121 7.75225 25.1823C7.96359 24.6524 8.2592 24.1917 8.6391 23.8001L19.1853 13.254L24.2814 18.3502C24.5352 18.604 24.8241 18.8091 25.148 18.9655C25.4719 19.122 25.8087 19.2002 26.1583 19.2002C26.6301 19.2002 27.064 19.0053 27.4602 18.6155C27.8564 18.2258 28.0545 17.7861 28.0545 17.2963C28.0545 17.0373 27.9865 16.77 27.8506 16.4944C27.7147 16.2187 27.5198 15.9476 27.266 15.6809L20.2506 8.66552C19.7788 8.19372 19.2596 7.83987 18.6929 7.60397C18.1262 7.36807 17.5339 7.25012 16.916 7.25012C16.3091 7.25012 15.7311 7.36807 15.182 7.60397C14.6329 7.83987 14.1234 8.19133 13.6535 8.65837L6.68525 15.6309C6.19295 16.1232 5.8359 16.6565 5.6141 17.2309C5.3923 17.8052 5.27755 18.4495 5.26985 19.1636C5.24935 19.7623 5.35832 20.3444 5.59675 20.9097C5.83522 21.4751 6.12882 21.9886 6.47755 22.4501L4.80835 24.1001C4.29552 23.4693 3.86924 22.7078 3.5295 21.8155C3.18977 20.9232 3.01349 20.0142 3.00065 19.0886C2.98785 18.1142 3.1635 17.188 3.5276 16.3098C3.8917 15.4315 4.41094 14.6553 5.0853 13.9809L12.0006 7.06557C12.6955 6.3707 13.4645 5.85469 14.3076 5.51752C15.1507 5.18032 16.0334 5.01172 16.9557 5.01172C17.8779 5.01172 18.7557 5.18032 19.5891 5.51752C20.4224 5.85469 21.1865 6.3707 21.8814 7.06557L23.2814 8.46562L24.6814 7.06557C25.3763 6.3707 26.1421 5.85469 26.9788 5.51752C27.8155 5.18032 28.6949 5.01172 29.6172 5.01172C30.5395 5.01172 31.4205 5.18032 32.2602 5.51752C33.0999 5.85469 33.8672 6.3707 34.5621 7.06557L42.8775 15.3809C43.5723 16.0758 44.1031 16.868 44.4698 17.7575C44.8364 18.6471 45.0198 19.549 45.0198 20.4633C45.0198 21.3776 44.8364 22.2514 44.4698 23.0847C44.1031 23.9181 43.5723 24.6822 42.8775 25.377L26.5467 41.7077C26.139 42.1283 25.6821 42.4392 25.1759 42.6404C24.6697 42.8417 24.138 42.9424 23.5807 42.9424Z" fill="#0076D2"/>
</svg>
