<svg width="48" height="48" viewBox="0 0 48 48" fill="none" xmlns="http://www.w3.org/2000/svg">
<path d="M11.7883 45.5C10.3256 45.5 9.07855 44.985 8.04715 43.9551C7.01575 42.9252 6.50005 41.6789 6.50005 40.2163C6.50005 38.7536 7.01403 37.5096 8.042 36.4842C9.06993 35.4588 10.3182 34.9462 11.7867 34.9462C12.2212 34.9462 12.6221 34.991 12.9893 35.0808C13.3565 35.1705 13.7255 35.3051 14.0962 35.4846L19.0962 29.2807C18.4885 28.5653 18.0405 27.764 17.752 26.8768C17.4635 25.9897 17.3962 25.0641 17.5501 24.1L10.3269 21.6846C9.86537 22.4922 9.24367 23.1262 8.4618 23.5865C7.67993 24.0467 6.78247 24.2769 5.7694 24.2769C4.31717 24.2769 3.07588 23.7636 2.04555 22.7371C1.01518 21.7106 0.5 20.4641 0.5 18.9977C0.5 17.5313 1.01495 16.2856 2.04485 15.2606C3.07472 14.2356 4.32098 13.7231 5.78365 13.7231C7.24632 13.7231 8.49033 14.2361 9.5157 15.2622C10.5411 16.2882 11.0538 17.5342 11.0538 19C11.0538 19.0641 11.0505 19.1359 11.0441 19.2154C11.0377 19.2949 11.0345 19.3538 11.0345 19.3923L18.2885 21.8962C18.7987 20.9705 19.434 20.2404 20.1942 19.7058C20.9545 19.1712 21.8256 18.8 22.8077 18.5924V10.9115C21.5205 10.6089 20.5179 9.95637 19.8 8.9538C19.0821 7.95124 18.7231 6.88962 18.7231 5.76895C18.7231 4.31912 19.2363 3.0785 20.2628 2.0471C21.2893 1.0157 22.5358 0.5 24.0023 0.5C25.4687 0.5 26.7144 1.01517 27.7394 2.0455C28.7644 3.07584 29.2769 4.31963 29.2769 5.7769C29.2769 6.89227 28.9128 7.95124 28.1846 8.9538C27.4564 9.95637 26.459 10.6089 25.1923 10.9115V18.5924C26.1743 18.8 27.0506 19.1712 27.8211 19.7058C28.5916 20.2404 29.2384 20.9705 29.7615 21.8962L36.9654 19.3923C36.9526 19.357 36.9462 19.2981 36.9462 19.2154V19C36.9462 17.5342 37.4581 16.2882 38.4819 15.2622C39.5058 14.2361 40.7491 13.7231 42.2117 13.7231C43.6744 13.7231 44.9215 14.2363 45.9529 15.2628C46.9843 16.2893 47.5 17.5358 47.5 19.0022C47.5 20.4686 46.9848 21.7144 45.9545 22.7394C44.9241 23.7644 43.6828 24.2769 42.2306 24.2769C41.2217 24.2769 40.3201 24.0435 39.5259 23.5769C38.7317 23.1102 38.1141 22.4794 37.6731 21.6846L30.45 24.1C30.6166 25.0641 30.5576 25.9929 30.273 26.8865C29.9884 27.7801 29.532 28.5717 28.9038 29.2615L33.9039 35.4846C34.2577 35.3051 34.6224 35.1705 34.9981 35.0808C35.3737 34.991 35.7715 34.9462 36.1914 34.9462C37.6912 34.9462 38.9509 35.4581 39.9706 36.4819C40.9902 37.5058 41.5 38.749 41.5 40.2117C41.5 41.6744 40.985 42.9214 39.9551 43.9528C38.9252 44.9842 37.679 45.5 36.2163 45.5C34.7536 45.5 33.5096 44.9864 32.4843 43.9593C31.4589 42.9321 30.9462 41.6849 30.9462 40.2176C30.9462 39.5777 31.0349 39.001 31.2124 38.4873C31.3898 37.9735 31.6703 37.4675 32.0539 36.9693L27.0538 30.7268C26.124 31.255 25.0992 31.5191 23.9796 31.5191C22.86 31.5191 21.8386 31.255 20.9154 30.7268L15.9461 37.0192C16.3179 37.5064 16.5955 38.0013 16.7788 38.5039C16.9621 39.0065 17.0538 39.5777 17.0538 40.2176C17.0538 41.6849 16.5419 42.9321 15.518 43.9592C14.4942 44.9864 13.2509 45.5 11.7883 45.5ZM5.78205 22.0076C6.62222 22.0076 7.3327 21.7155 7.9135 21.1314C8.49427 20.5472 8.78465 19.835 8.78465 18.9948C8.78465 18.1546 8.49255 17.4441 7.90835 16.8634C7.32415 16.2826 6.61197 15.9922 5.7718 15.9922C4.93163 15.9922 4.22115 16.2843 3.64035 16.8685C3.05958 17.4527 2.7692 18.1649 2.7692 19.0051C2.7692 19.8452 3.0613 20.5557 3.6455 21.1365C4.2297 21.7172 4.94188 22.0076 5.78205 22.0076ZM11.7821 43.2307C12.6222 43.2307 13.3327 42.9386 13.9135 42.3544C14.4943 41.7702 14.7846 41.058 14.7846 40.2179C14.7846 39.3777 14.4925 38.6672 13.9083 38.0864C13.3241 37.5056 12.612 37.2153 11.7718 37.2153C10.9316 37.2153 10.2212 37.5074 9.64035 38.0916C9.05958 38.6758 8.7692 39.3879 8.7692 40.2281C8.7692 41.0683 9.0613 41.7788 9.6455 42.3596C10.2297 42.9403 10.9419 43.2307 11.7821 43.2307ZM24.0052 8.78455C24.8453 8.78455 25.5558 8.49245 26.1366 7.90825C26.7173 7.32405 27.0077 6.61187 27.0077 5.7717C27.0077 4.93153 26.7156 4.22105 26.1315 3.64025C25.5473 3.05949 24.8351 2.7691 23.9949 2.7691C23.1547 2.7691 22.4442 3.0612 21.8635 3.6454C21.2827 4.2296 20.9923 4.94179 20.9923 5.78195C20.9923 6.62212 21.2844 7.3326 21.8686 7.9134C22.4528 8.49417 23.165 8.78455 24.0052 8.78455ZM24.0154 29.25C25.1949 29.25 26.1955 28.8339 27.0173 28.0018C27.8391 27.1698 28.25 26.1641 28.25 24.9846C28.25 23.8051 27.8372 22.8045 27.0117 21.9827C26.1862 21.1609 25.1823 20.75 24 20.75C22.8308 20.75 21.8301 21.1627 20.9981 21.9883C20.166 22.8138 19.75 23.8177 19.75 25C19.75 26.1692 20.166 27.1698 20.9981 28.0018C21.8301 28.8339 22.8359 29.25 24.0154 29.25ZM36.2282 43.2308C37.0684 43.2308 37.7789 42.9387 38.3597 42.3545C38.9404 41.7703 39.2308 41.0581 39.2308 40.2179C39.2308 39.3777 38.9387 38.6673 38.3545 38.0865C37.7703 37.5057 37.0581 37.2153 36.218 37.2153C35.3778 37.2153 34.6673 37.5074 34.0865 38.0916C33.5057 38.6758 33.2154 39.388 33.2154 40.2282C33.2154 41.0683 33.5075 41.7788 34.0917 42.3596C34.6759 42.9404 35.388 43.2308 36.2282 43.2308ZM42.2282 22.0077C43.0684 22.0077 43.7789 21.7156 44.3597 21.1314C44.9404 20.5472 45.2308 19.835 45.2308 18.9948C45.2308 18.1546 44.9387 17.4442 44.3545 16.8634C43.7703 16.2826 43.0581 15.9923 42.218 15.9923C41.3778 15.9923 40.6673 16.2843 40.0865 16.8685C39.5057 17.4527 39.2154 18.1649 39.2154 19.0051C39.2154 19.8453 39.5075 20.5557 40.0917 21.1365C40.6759 21.7173 41.388 22.0077 42.2282 22.0077Z" fill="#0076D2"/>
</svg>
