<svg width="48" height="48" viewBox="0 0 48 48" fill="none" xmlns="http://www.w3.org/2000/svg">
<path d="M16.5723 37.1922L23.9992 32.723L31.4261 37.2422L29.4607 28.7845L35.9953 23.1115L27.3761 22.3499L23.9992 14.3923L20.6223 22.2999L12.0031 23.0615L18.5377 28.7538L16.5723 37.1922ZM23.9992 35.3768L15.4877 40.5152C15.2723 40.6306 15.0531 40.6832 14.83 40.6729C14.607 40.6626 14.4044 40.5934 14.2223 40.4652C14.0403 40.337 13.9038 40.1684 13.8127 39.9594C13.7217 39.7505 13.7095 39.5178 13.7762 39.2614L16.0146 29.5845L8.52623 23.0499C8.32366 22.8807 8.19738 22.6865 8.14738 22.4673C8.09738 22.2481 8.10571 22.0308 8.17238 21.8154C8.22624 21.6128 8.34099 21.4423 8.51663 21.3038C8.69226 21.1654 8.90828 21.0859 9.16468 21.0654L19.0723 20.1923L22.9261 11.0385C23.0338 10.8155 23.1857 10.645 23.3819 10.527C23.578 10.4091 23.7838 10.3501 23.9992 10.3501C24.2145 10.3501 24.4203 10.4091 24.6165 10.527C24.8126 10.645 24.9645 10.8155 25.0722 11.0385L28.926 20.1923L38.8337 21.0654C39.0901 21.0859 39.3061 21.1654 39.4817 21.3038C39.6574 21.4423 39.7785 21.6128 39.8452 21.8154C39.899 22.0308 39.901 22.2481 39.851 22.4673C39.801 22.6865 39.6747 22.8807 39.4721 23.0499L31.9837 29.5845L34.2414 39.2614C34.2952 39.5178 34.2767 39.7505 34.1856 39.9594C34.0946 40.1684 33.9581 40.337 33.776 40.4652C33.594 40.5934 33.3914 40.6626 33.1683 40.6729C32.9453 40.6832 32.726 40.6306 32.5107 40.5152L23.9992 35.3768Z" fill="#0076D2"/>
</svg>
