<svg width="48" height="48" viewBox="0 0 48 48" fill="none" xmlns="http://www.w3.org/2000/svg">
<path d="M43.2502 17.0038L41.0076 16.0002L43.2502 14.9966L44.2538 12.7541L45.2766 14.9966L47.4999 16.0002L45.2766 17.0038L44.2538 19.2463L43.2502 17.0038ZM36.4429 7.16106L33.1268 5.60401L36.4429 4.04695L37.9999 0.730957L39.5569 4.04695L42.8729 5.60401L39.5569 7.16106L37.9999 10.4578L36.4429 7.16106ZM17.9999 43.154C16.9691 43.154 16.0845 42.804 15.3461 42.104C14.6076 41.404 14.2127 40.5386 14.1614 39.5078H21.8384C21.7871 40.5386 21.3922 41.404 20.6538 42.104C19.9153 42.804 19.0307 43.154 17.9999 43.154ZM11.5537 35.927C11.232 35.927 10.9624 35.8175 10.7451 35.5984C10.5278 35.3792 10.4191 35.1074 10.4191 34.783C10.4191 34.4585 10.5278 34.1899 10.7451 33.9771C10.9624 33.7643 11.232 33.6579 11.5537 33.6579H24.4461C24.7678 33.6579 25.0374 33.7674 25.2547 33.9865C25.472 34.2056 25.5806 34.4774 25.5806 34.8019C25.5806 35.1263 25.472 35.395 25.2547 35.6078C25.0374 35.8206 24.7678 35.927 24.4461 35.927H11.5537ZM10.5538 30.127C8.5333 28.7706 6.93587 27.0975 5.7615 25.1078C4.58717 23.1181 4 20.8758 4 18.381C4 14.5579 5.37755 11.2688 8.13265 8.51371C10.8878 5.75857 14.1768 4.38101 17.9999 4.38101C21.823 4.38101 25.112 5.75857 27.8671 8.51371C30.6223 11.2688 31.9999 14.5579 31.9999 18.381C31.9999 20.8758 31.4178 23.1181 30.2537 25.1078C29.0896 27.0975 27.487 28.7706 25.446 30.127H10.5538ZM11.3653 27.8579H24.6486C26.2341 26.7912 27.4775 25.4249 28.3788 23.7591C29.28 22.0933 29.7306 20.3006 29.7306 18.381C29.7306 15.1451 28.5845 12.381 26.2922 10.0887C23.9999 7.79636 21.2358 6.6502 17.9999 6.6502C14.764 6.6502 11.9999 7.79636 9.7076 10.0887C7.4153 12.381 6.26915 15.1451 6.26915 18.381C6.26915 20.3006 6.71978 22.0933 7.62105 23.7591C8.52235 25.4249 9.77043 26.7912 11.3653 27.8579Z" fill="#0076D2"/>
</svg>
